<svg width="2158" height="526" xmlns="http://www.w3.org/2000/svg">
    <g fill="none" fill-rule="evenodd">
        <path d="M255 113.236c-81.74 0-148 67.047-148 149.758 0 82.711 66.26 149.758 148 149.758s148-67.047 148-149.758c0-82.711-66.26-149.758-148-149.758zm95.484 130.132v4.185c0 3.545-1.981 6.788-5.114 8.37l-9.185 4.65a9.148 9.148 0 01-9.268-.586l-10.867-7.331a9.17 9.17 0 00-8.056-1.093l-1.582.531c-5.789 1.95-8.152 8.931-4.768 14.07l7.901 11.993a9.215 9.215 0 007.693 4.167h4.9c5.107 0 9.25 4.19 9.25 9.36v6.847a9.446 9.446 0 01-1.85 5.616l-11.184 15.085a9.46 9.46 0 00-1.69 3.883L314.1 336.9a9.41 9.41 0 01-2.841 5.17 96.082 96.082 0 00-14.92 17.608l-7.775 11.805c-3.072 4.662-8.243 7.463-13.78 7.464-6.272 0-12.007-3.587-14.812-9.263a48.11 48.11 0 01-4.971-21.31v-18.05c0-5.17-4.142-9.36-9.25-9.36h-15.445c-8.647 0-16.936-3.478-23.053-9.662-6.112-6.188-9.547-14.578-9.548-23.327v-8.49c0-10.38 4.834-20.157 13.04-26.39l16.458-12.493a32.37 32.37 0 0119.563-6.6h.53c5.061 0 10.056 1.19 14.58 3.484l8.784 4.444a9.143 9.143 0 007.06.508l28.234-9.523c3.777-1.275 6.325-4.85 6.325-8.877 0-5.17-4.141-9.36-9.25-9.36h-6.021a9.191 9.191 0 01-6.54-2.742l-4.13-4.178a9.191 9.191 0 00-6.541-2.742h-53.74c-5.108 0-9.25-4.19-9.25-9.36V193c0-4.293 2.889-8.037 7.007-9.082l8.623-2.18a9.268 9.268 0 005.454-3.889l4.822-7.313a9.215 9.215 0 017.693-4.166h14.448c5.108 0 9.25-4.191 9.25-9.36v-13.104c47.276 7.754 85.249 43.617 96.63 90.103h-11c-5.108 0-9.25 4.19-9.25 9.36z" fill-rule="nonzero" fill="#D9A25F"/>
        <path d="M400 62.743c63 45.534 104 120.009 104 204.299 0 138.425-110.8 250.643-247.5 250.946C120 518.292 8.2 405.67 8 267.446c-.1-84.29 40.9-158.966 103.8-204.602 11.7-8.399 28-4.857 35 7.791l15.8 28.434c5.9 10.625 3.1 24.083-6.6 31.369-41.5 31.166-68 80.545-68 136.502-.1 93.397 74.5 170.098 168 170.098 91.6 0 168.6-75.082 168-171.11-.3-52.415-24.7-103.009-68.1-135.592-9.7-7.285-12.4-20.743-6.5-31.267l15.8-28.434c7-12.547 23.2-16.29 34.8-7.892zM296 275.137V32.285C296 18.827 285.3 8 272 8h-32c-13.3 0-24 10.827-24 24.285v242.852c0 13.458 10.7 24.285 24 24.285h32c13.3 0 24-10.827 24-24.285z" stroke="#027353" stroke-width="15"/>
        <text font-family="Raleway" font-size="217" letter-spacing="13.563" fill="#027353" transform="translate(8 8)">
            <tspan x="556" y="354">MENA Electric</tspan>
        </text>
    </g>
</svg>
