<?xml version="1.0" encoding="UTF-8"?>
<svg width="2158px" height="526px" viewBox="0 0 2158 526" version="1.1" xmlns="http://www.w3.org/2000/svg" xmlns:xlink="http://www.w3.org/1999/xlink">
    <!-- Generator: Sketch 43.2 (39069) - http://www.bohemiancoding.com/sketch -->
    <title>M.E.Electic</title>
    <desc>Created with Sketch.</desc>
    <defs></defs>
    <g id="Page-1" stroke="none" stroke-width="1" fill="none" fill-rule="evenodd">
        <g id="M.E.Electic" transform="translate(8.000000, 8.000000)">
            <g id="globe-africa-solid" transform="translate(99.000000, 105.235644)" fill-rule="nonzero" fill="#D9A25F">
                <path d="M148,0 C66.2598387,0 0,67.0470843 0,149.758416 C0,232.469747 66.2598387,299.516832 148,299.516832 C229.740161,299.516832 296,232.469747 296,149.758416 C296,67.0470843 229.740161,0 148,0 Z M243.483871,130.132817 L243.483871,134.317599 C243.483871,137.862284 241.502581,141.105036 238.369516,142.687162 L229.185161,147.336919 C226.216175,148.84048 222.678271,148.616878 219.917258,146.75117 L209.05,139.420254 C206.674412,137.819256 203.70201,137.415999 200.993548,138.327259 L199.412097,138.85866 C193.623387,140.809143 191.260161,147.789817 194.643871,152.928705 L202.545161,164.921455 C204.257903,167.524112 207.14629,169.088121 210.237581,169.088121 L215.137097,169.088121 C220.245484,169.088121 224.387097,173.278941 224.387097,178.448022 L224.387097,185.295846 C224.387097,187.318793 223.736613,189.29343 222.537097,190.911787 L211.353548,205.996324 C210.506129,207.143667 209.927258,208.472169 209.664677,209.879173 L207.098548,223.665402 C206.728548,225.652116 205.731935,227.46371 204.257903,228.834483 C198.602409,234.074938 193.593027,239.987302 189.338548,246.443174 L181.562581,258.248726 C178.491064,262.910855 173.320414,265.711572 167.783065,265.712492 C161.510968,265.712492 155.775968,262.125537 152.971129,256.44921 C149.701633,249.83257 147.999651,242.536467 148,235.138829 L148,217.089317 C148,211.920236 143.858387,207.729416 138.75,207.729416 L123.305484,207.729416 C114.658226,207.729416 106.369032,204.251156 100.252097,198.067582 C94.139744,191.879646 90.7053703,183.489263 90.7037097,174.740294 L90.7037097,166.249958 C90.7037097,155.869525 95.5375806,146.092958 103.743226,139.861075 L120.202258,127.367117 C125.846196,123.084578 132.710013,120.768749 139.764516,120.766877 L140.295645,120.766877 C145.35629,120.766877 150.35129,121.956491 154.874839,124.251176 L163.659355,128.695619 C165.855484,129.80673 168.391774,129.987889 170.719194,129.202866 L198.952581,119.679921 C202.730161,118.405767 205.278387,114.830889 205.278387,110.803112 C205.278387,105.634031 201.136774,101.443211 196.028387,101.443211 L190.006935,101.443211 C187.554194,101.443211 185.202903,100.458912 183.46629,98.7016656 L179.336613,94.5229227 C177.602199,92.7671955 175.249293,91.7809626 172.795968,91.7813775 L119.056452,91.7813775 C113.948065,91.7813775 109.806452,87.5905573 109.806452,82.4214765 L109.806452,79.7644724 C109.806452,75.4709952 112.694839,71.7270348 116.812581,70.6823491 L125.435968,68.502398 C127.667903,67.9347653 129.613387,66.5519154 130.890484,64.6135101 L135.712419,57.30071 C137.425161,54.6980537 140.313548,53.1340444 143.404839,53.1340444 L157.852742,53.1340444 C162.961129,53.1340444 167.102742,48.9432242 167.102742,43.7741434 L167.102742,30.670282 C214.379194,38.4239032 252.351935,74.2874206 263.732419,120.772916 L252.733871,120.772916 C247.625484,120.772916 243.483871,124.963736 243.483871,130.132817 Z" id="Shape"></path>
            </g>
            <g id="power-off-solid" stroke="#027353" stroke-width="15" fill-rule="nonzero">
                <path d="M392,54.7427723 C455,100.277426 496,174.751881 496,259.041584 C496,397.466931 385.2,509.684554 248.5,509.988119 C112,510.291683 0.2,397.669307 -3.15150466e-16,259.446337 C-0.1,175.156634 40.9,100.479802 103.8,54.8439604 C115.5,46.4453465 131.8,49.9869307 138.8,62.6354455 L154.6,91.0693069 C160.5,101.694059 157.7,115.152079 148,122.437624 C106.5,153.603564 80,202.983366 80,258.940396 C79.9,352.33703 154.5,429.037624 248,429.037624 C339.6,429.037624 416.6,353.95604 416,257.928515 C415.7,205.513069 391.3,154.91901 347.9,122.336436 C338.2,115.050891 335.5,101.592871 341.4,91.0693069 L357.2,62.6354455 C364.2,50.0881188 380.4,46.3441584 392,54.7427723 Z M288,267.136634 L288,24.2851485 C288,10.8271287 277.3,0 264,0 L232,0 C218.7,0 208,10.8271287 208,24.2851485 L208,267.136634 C208,280.594653 218.7,291.421782 232,291.421782 L264,291.421782 C277.3,291.421782 288,280.594653 288,267.136634 Z" id="Shape"></path>
            </g>
            <text id="MENA-Electric" font-family="Raleway" font-size="217" font-weight="normal" letter-spacing="13.5625" fill="#027353">
                <tspan x="556" y="354">MENA Electric</tspan>
            </text>
        </g>
    </g>
</svg>